<svg version="1.1" xmlns="http://www.w3.org/2000/svg" xmlns:xlink="http://www.w3.org/1999/xlink" x="0px" y="0px" width="612px"
	 height="792px" viewBox="0 0 612 792" enable-background="new 0 0 612 792" xml:space="preserve">
<g id="Layer_6">
	<g>
		<g>
			<path fill-rule="evenodd" clip-rule="evenodd" fill="#FFFFFF" d="M117.041,190.164c0.523-0.807,0.636-1.207,0.873-1.303
				c0.605-0.246,1.271-0.52,1.903-0.498c8.291,0.295,14.246-2.227,14.479-11.805c0.003-0.152,0.145-0.298,0.197-0.455
				c5.01-15.251,10.018-30.503,15.021-45.757c0.104-0.314,0.139-0.65,0.211-0.976c2.806-12.654,5.47-25.343,8.455-37.955
				c3.432-14.494,5.628-29.076,4.649-44.023c-0.899-13.742-6.276-25.143-17.721-33.15C123.36-0.974,100.001-2.792,75.858,7.324
				C51.466,17.545,39.937,36.445,42.258,62.673c0.736,8.32,3.482,16.586,6.179,24.583c4.687,13.897,9.737,27.625,10.816,42.451
				c0.182,2.491,1.753,4.92,2.863,7.294c1.532,3.278,3.989,6.312,4.734,9.737c2.966,13.64,5.55,27.366,8.001,41.11
				c0.958,5.374,2.038,6.534,7.501,5.863c1.809-0.222,3.627-0.369,5.441-0.551c0.074,0.525,0.148,1.05,0.223,1.575
				c-3.436,0.804-6.965,1.35-10.264,2.537c-1.367,0.493-2.239,2.358-3.337,3.601c1.31,0.789,2.536,2,3.948,2.282
				c3.177,0.636,6.447,0.812,9.679,1.175c0.103,0.436,0.206,0.871,0.309,1.307c-2.021,0.694-4.112,1.237-6.048,2.119
				c-2.838,1.292-5.566,2.826-8.341,4.258c3.027,0.283,6.049,0.65,9.082,0.822c2.39,0.135,4.793,0.026,7.191,0.026
				c0.084,0.676,0.168,1.351,0.252,2.025c-3.698,1.072-7.436,2.028-11.07,3.282c-1.19,0.411-2.113,1.598-3.159,2.43
				c1.08,1.075,1.993,2.69,3.282,3.091c1.651,0.512,3.608,0.09,5.429-0.013c1.841-0.104,3.676-0.309,5.514-0.469
				c0.171,0.542,0.341,1.085,0.512,1.627c-1.744,0.812-3.556,1.507-5.214,2.467c-1.758,1.019-4.926,2.626-4.762,3.389
				c0.555,2.568,1.949,5.218,3.751,7.16c1.174,1.266,3.613,1.873,5.485,1.873c4.136-0.001,7.179,1.486,10.099,4.438
				c4.963,5.018,12.209,3.796,15.286-2.449c1.55-3.146,3.752-4.347,7.064-4.463c5.961-0.209,9.133-4.464,11.689-8.983
				c1.533-2.709,0.338-5.363-2.785-6.312c-2.021-0.615-4.25-0.72-6.391-0.748c-6.737-0.088-13.477-0.032-20.216-0.032
				c1.317-1.331,2.782-1.932,4.304-2.177c7.548-1.216,15.141-2.188,22.645-3.623c1.468-0.28,2.617-2.223,3.912-3.398
				c-1.512-0.681-3.076-2.039-4.529-1.929c-7.277,0.555-14.523,1.521-21.789,2.267c-1.056,0.108-2.154-0.189-3.233-0.299
				c-0.058-0.652-0.116-1.304-0.174-1.956c5.08-0.972,10.157-1.957,15.241-2.912c2.771-0.521,5.67-0.66,8.283-1.604
				c1.545-0.559,2.645-2.35,3.943-3.586c-1.582-0.595-3.164-1.671-4.745-1.671c-2.457,0-4.938,0.626-7.366,1.181
				c-3.565,0.813-7.062,1.946-10.644,2.667c-3.117,0.627-6.113,0.39-8.192-3.227c1.226-0.344,1.976-0.625,2.752-0.761
				c7.536-1.319,15.116-2.427,22.587-4.047c1.934-0.419,3.525-2.42,5.275-3.694c-2.102-0.749-4.156-1.897-6.315-2.15
				C123.805,189.889,120.575,190.164,117.041,190.164z M184.868,71.368c7.316-1.552,14.309-2.801,21.142-4.642
				c1.793-0.483,3.092-2.801,4.618-4.275c-1.794-1.506-3.445-4.073-5.405-4.334c-8.484-1.131-16.101,1.545-22.531,7.147
				c-1.003,0.874-1.567,3.021-1.271,4.341C181.608,70.445,183.757,70.846,184.868,71.368z M7.939,158.341
				c0.285,0.59,0.57,1.18,0.855,1.77c1.55-0.365,3.317-0.371,4.615-1.154c8.504-5.127,16.955-10.348,25.292-15.742
				c1.287-0.833,1.896-2.713,2.817-4.107c-1.873-0.751-3.708-1.95-5.629-2.106c-1.461-0.12-3.217,0.822-4.518,1.747
				c-5.399,3.84-10.802,7.697-15.945,11.866C12.661,152.857,10.418,155.745,7.939,158.341z M56.732,170.341
				c-1.249-1.535-2.249-3.413-3.812-4.414c-0.792-0.508-3.012,0.146-3.879,0.995c-5.458,5.349-10.841,10.788-15.958,16.46
				c-1.313,1.455-1.576,3.857-2.322,5.824c2.269-0.357,5.134,0.037,6.7-1.207c6.24-4.951,12.083-10.402,18.042-15.702
				C55.965,171.888,56.194,171.218,56.732,170.341z M181.154,201.593c1.086-0.895,2.788-1.621,3.135-2.761
				c0.395-1.295,0.101-3.491-0.798-4.376c-5.891-5.801-11.938-11.455-18.168-16.889c-1.05-0.917-3.23-0.538-4.889-0.758
				c0.287,1.655,0.008,3.807,0.953,4.885c5.57,6.351,11.41,12.466,17.213,18.61C179.118,200.853,180.02,201.039,181.154,201.593z
				 M190.508,102.112c-3.211,0-5.383-0.116-7.533,0.051c-1.027,0.08-2.811,0.616-2.859,1.087c-0.115,1.139,0.254,2.703,1.039,3.469
				c1.132,1.103,2.73,2.106,4.26,2.356c6.873,1.122,13.777,2.127,20.708,2.785c1.659,0.158,3.46-1.176,5.195-1.824
				c-0.836-1.512-1.4-3.305-2.589-4.453c-1.104-1.066-2.819-1.839-4.36-2.051C199.432,102.854,194.453,102.496,190.508,102.112z
				 M178.332,146.318c-0.465,0.283-1.966,0.895-1.906,1.213c0.255,1.359,0.601,3.26,1.577,3.834
				c7.24,4.249,14.604,8.298,22.041,12.193c0.81,0.424,3.252-0.352,3.352-0.874c0.241-1.265-0.063-2.997-0.833-4.032
				C196.672,150.727,187.842,148.336,178.332,146.318z M197.149,5.109c-8.624,2.999-15.17,7.881-20.024,14.92
				c-0.714,1.036-0.51,2.705-0.73,4.081c1.42,0.125,3.222,0.874,4.198,0.275c6.351-3.892,12.603-7.963,18.668-12.284
				c0.925-0.659,1.23-3.051,0.869-4.384C199.833,6.62,198.123,5.904,197.149,5.109z M18.218,97.263
				c-0.067-0.254-0.134-0.508-0.201-0.763c-4.746,1.341-9.57,2.467-14.194,4.144c-1.538,0.558-2.563,2.53-3.823,3.855
				c1.64,1.13,3.378,3.339,4.904,3.202c6.039-0.544,12.055-1.629,17.978-2.963c1.499-0.337,2.624-2.335,3.92-3.57
				c-1.701-1.301-3.293-2.798-5.148-3.82C20.764,96.857,19.379,97.263,18.218,97.263z M20.455,62.633
				c0.413-0.18,1.886-0.821,3.36-1.462c-0.973-1.208-1.703-2.973-2.962-3.523c-4.367-1.908-8.822-3.852-13.445-4.818
				c-1.902-0.398-5.66,1.166-6.216,2.695c-1.137,3.125,1.848,4.535,4.634,5.007C10.229,61.278,14.667,61.815,20.455,62.633z
				 M14.332,14.797c0.222,1.777,0.155,2.298,0.317,2.384c6.035,3.193,12.068,6.391,18.188,9.415c0.458,0.227,2.09-0.712,2.222-1.316
				c0.202-0.93-0.087-2.531-0.756-2.989c-3.093-2.118-6.211-4.403-9.665-5.729C21.559,15.38,18.028,15.377,14.332,14.797z"/>
			<path fill-rule="evenodd" clip-rule="evenodd" d="M184.868,71.368c-1.11-0.522-3.26-0.923-3.447-1.763
				c-0.297-1.32,0.268-3.467,1.271-4.341c6.431-5.602,14.047-8.278,22.531-7.147c1.96,0.261,3.611,2.828,5.405,4.334
				c-1.526,1.475-2.825,3.792-4.618,4.275C199.176,68.567,192.184,69.816,184.868,71.368z"/>
			<path fill-rule="evenodd" clip-rule="evenodd" d="M7.939,158.341c2.479-2.597,4.722-5.484,7.488-7.728
				c5.143-4.169,10.546-8.026,15.945-11.866c1.3-0.925,3.057-1.867,4.518-1.747c1.921,0.157,3.757,1.355,5.629,2.106
				c-0.922,1.395-1.531,3.274-2.817,4.107c-8.336,5.395-16.788,10.615-25.292,15.742c-1.298,0.783-3.065,0.789-4.615,1.154
				C8.51,159.521,8.225,158.931,7.939,158.341z"/>
			<path fill-rule="evenodd" clip-rule="evenodd" d="M56.732,170.341c-0.538,0.877-0.767,1.547-1.227,1.956
				c-5.96,5.3-11.803,10.751-18.042,15.702c-1.566,1.244-4.432,0.85-6.7,1.207c0.746-1.967,1.009-4.369,2.322-5.824
				c5.116-5.672,10.5-11.111,15.958-16.46c0.867-0.85,3.087-1.503,3.879-0.995C54.483,166.928,55.483,168.806,56.732,170.341z"/>
			<path fill-rule="evenodd" clip-rule="evenodd" d="M181.154,201.593c-1.134-0.555-2.036-0.74-2.554-1.288
				c-5.803-6.145-11.643-12.26-17.213-18.61c-0.945-1.078-0.666-3.229-0.953-4.885c1.658,0.22,3.839-0.159,4.889,0.758
				c6.229,5.434,12.277,11.088,18.168,16.889c0.898,0.885,1.192,3.081,0.798,4.376C183.942,199.972,182.24,200.699,181.154,201.593z
				"/>
			<path fill-rule="evenodd" clip-rule="evenodd" d="M190.508,102.112c3.944,0.383,8.924,0.742,13.86,1.42
				c1.541,0.212,3.256,0.984,4.36,2.051c1.188,1.147,1.753,2.941,2.589,4.453c-1.735,0.648-3.536,1.982-5.195,1.824
				c-6.931-0.658-13.835-1.663-20.708-2.785c-1.529-0.25-3.128-1.253-4.26-2.356c-0.785-0.766-1.154-2.33-1.039-3.469
				c0.049-0.471,1.832-1.008,2.859-1.087C185.125,101.996,187.297,102.112,190.508,102.112z"/>
			<path fill-rule="evenodd" clip-rule="evenodd" d="M178.332,146.318c9.511,2.019,18.341,4.409,24.23,12.334
				c0.77,1.035,1.074,2.768,0.833,4.032c-0.1,0.522-2.542,1.298-3.352,0.874c-7.438-3.896-14.801-7.944-22.041-12.193
				c-0.977-0.574-1.322-2.475-1.577-3.834C176.366,147.212,177.867,146.601,178.332,146.318z"/>
			<path fill-rule="evenodd" clip-rule="evenodd" d="M197.149,5.109c0.974,0.795,2.684,1.511,2.98,2.609
				c0.361,1.333,0.056,3.725-0.869,4.384c-6.065,4.321-12.317,8.393-18.668,12.284c-0.977,0.599-2.778-0.15-4.198-0.275
				c0.221-1.376,0.017-3.045,0.73-4.081C181.979,12.991,188.525,8.108,197.149,5.109z"/>
			<path fill-rule="evenodd" clip-rule="evenodd" d="M18.218,97.263c1.161,0,2.545-0.406,3.436,0.084
				c1.855,1.022,3.448,2.519,5.148,3.82c-1.296,1.235-2.421,3.233-3.92,3.57c-5.923,1.334-11.939,2.419-17.978,2.963
				C3.378,107.839,1.64,105.63,0,104.5c1.259-1.325,2.285-3.297,3.823-3.855c4.624-1.677,9.448-2.803,14.194-4.144
				C18.084,96.755,18.151,97.009,18.218,97.263z"/>
			<path fill-rule="evenodd" clip-rule="evenodd" d="M20.455,62.633c-5.788-0.818-10.227-1.355-14.63-2.101
				c-2.786-0.472-5.771-1.882-4.634-5.007c0.557-1.529,4.314-3.093,6.216-2.695c4.623,0.966,9.079,2.91,13.445,4.818
				c1.26,0.55,1.99,2.315,2.962,3.523C22.341,61.813,20.868,62.454,20.455,62.633z"/>
			<path fill-rule="evenodd" clip-rule="evenodd" d="M14.332,14.797c3.697,0.58,7.228,0.583,10.306,1.764
				c3.454,1.326,6.572,3.611,9.665,5.729c0.668,0.458,0.958,2.059,0.756,2.989c-0.131,0.604-1.764,1.543-2.222,1.316
				c-6.12-3.023-12.153-6.221-18.188-9.415C14.486,17.095,14.554,16.575,14.332,14.797z"/>
			<path fill-rule="evenodd" clip-rule="evenodd" fill="#FFF200" d="M93.561,176.114c-8.035,2.499-10.154,1.034-11.934-6.167
				c-2.51-10.154-5.791-20.117-8.507-30.225c-2.622-9.756-4.521-19.724-7.504-29.362c-4.077-13.174-9.518-25.945-13.211-39.212
				c-4.929-17.705,1.287-32.855,13.642-45.54c3.104-3.187,7.727-5.103,11.935-6.963c12.351-5.459,25.298-8.077,38.878-7.464
				c17.201,0.775,32.305,14.036,35.296,31.045c2.343,13.318-0.395,26.06-3.426,38.957c-6.543,27.852-12.498,55.842-18.752,83.762
				c-0.798,3.56-1.647,7.165-3.05,10.507c-0.753,1.795-2.464,3.63-4.212,4.48c-5.113,2.488-6.708,1.222-6.938-4.506
				c-0.167-4.147-0.928-8.277-0.992-12.422c-0.123-7.96,0.232-15.928,0.051-23.884c-0.101-4.437-0.229-9.057-1.509-13.239
				c-1.864-6.089-1.563-11.7,0.667-17.528c6.12-16,12.508-31.917,17.916-48.159c2.212-6.645,2.257-14.03,3.09-21.101
				c0.186-1.581,0.042-3.623-0.826-4.815c-1.664-2.289-3.674-5.114-6.086-5.8c-1.648-0.469-5.162,1.79-6.227,3.72
				c-6.17,11.201-11.865,22.665-17.713,34.043c-0.934,1.816-1.833,3.649-2.747,5.474c-0.414-0.099-0.827-0.199-1.24-0.298
				c-1.111-6.301-1.934-12.671-3.427-18.879c-1.157-4.81-2.652-9.676-4.903-14.05c-2.889-5.613-7.242-5.62-10.717-0.351
				c-4.601,6.975-5.7,14.854-4.929,22.999c1.908,20.167,5.819,39.824,14.623,58.299c3.989,8.372,2.239,17.383,1.701,26.125
				C91.881,155.823,90.347,166.054,93.561,176.114z"/>
			<path fill-rule="evenodd" clip-rule="evenodd" fill="#FFF200" d="M126.545,41.815c-0.223,23.051-10.366,41.707-19.95,61.212
				c-3.667-4.129-4.222-8.427-3.833-12.936C103.599,80.401,118.467,49.779,126.545,41.815z"/>
			<path fill-rule="evenodd" clip-rule="evenodd" fill="#FFF200" d="M82.661,55.139c0.452-2.909,0.522-5.301,1.271-7.458
				c0.453-1.304,1.96-2.241,2.993-3.343c0.928,1.21,2.465,2.321,2.679,3.646c0.952,5.903,1.516,11.868,2.238,17.808
				c1.264,10.391,2.349,20.81,3.911,31.156c0.611,4.044,2.424,7.895,3.437,11.898c0.299,1.184-0.265,2.586-0.433,3.889
				c-1.201-0.769-3.174-1.307-3.483-2.342c-2.85-9.544-5.753-19.096-7.958-28.801C85.295,72.697,84.118,63.611,82.661,55.139z"/>
			<path fill-rule="evenodd" clip-rule="evenodd" fill="#FFF200" d="M109.652,180.236c0.1-0.226-0.364,1.13-0.505,1.097
				c-2.489-0.579-5.056-1.08-7.344-2.154c-1.012-0.476-2.284-2.464-2.011-3.296c3.7-11.273,0.127-22.457-0.076-33.668
				c-0.077-4.27,0.467-8.589,1.187-12.807c0.198-1.157,2.056-2.029,3.153-3.033c0.596,1.231,1.632,2.432,1.719,3.698
				c0.737,10.78,1.205,21.578,1.958,32.356C108.125,168.048,108.926,173.64,109.652,180.236z"/>
			<path fill-rule="evenodd" clip-rule="evenodd" d="M162.83,47.393c-0.899-13.742-6.276-25.143-17.721-33.15
				C123.36-0.974,100.001-2.792,75.858,7.324C51.466,17.545,39.937,36.445,42.258,62.673c0.736,8.32,3.482,16.586,6.179,24.583
				c4.687,13.897,9.737,27.625,10.816,42.451c0.182,2.491,1.753,4.92,2.863,7.294c1.532,3.278,3.989,6.312,4.734,9.737
				c2.966,13.64,5.55,27.366,8.001,41.11c0.958,5.374,2.038,6.534,7.501,5.863c1.809-0.222,3.627-0.369,5.441-0.551
				c0.074,0.525,0.148,1.05,0.223,1.575c-3.436,0.804-6.965,1.35-10.264,2.537c-1.367,0.493-2.239,2.358-3.337,3.601
				c1.31,0.789,2.536,2,3.948,2.282c3.177,0.636,6.447,0.812,9.679,1.175c0.103,0.436,0.206,0.871,0.309,1.307
				c-2.021,0.694-4.112,1.237-6.048,2.119c-2.838,1.292-5.566,2.826-8.341,4.258c3.027,0.283,6.049,0.65,9.082,0.822
				c2.39,0.135,4.793,0.026,7.191,0.026c0.084,0.676,0.168,1.351,0.252,2.025c-3.698,1.072-7.436,2.028-11.07,3.282
				c-1.19,0.411-2.113,1.598-3.159,2.43c1.08,1.075,1.993,2.69,3.282,3.091c1.651,0.512,3.608,0.09,5.429-0.013
				c1.841-0.104,3.676-0.309,5.514-0.469c0.171,0.542,0.341,1.085,0.512,1.627c-1.744,0.812-3.556,1.507-5.214,2.467
				c-1.758,1.019-4.926,2.626-4.762,3.389c0.555,2.568,1.949,5.218,3.751,7.16c1.174,1.266,3.613,1.873,5.485,1.873
				c4.136-0.001,7.179,1.486,10.099,4.438c4.963,5.018,12.209,3.796,15.286-2.449c1.55-3.146,3.752-4.347,7.064-4.463
				c5.961-0.209,9.133-4.464,11.689-8.983c1.533-2.709,0.338-5.363-2.785-6.312c-2.021-0.615-4.25-0.72-6.391-0.748
				c-6.737-0.088-13.477-0.032-20.216-0.032c1.317-1.331,2.782-1.932,4.304-2.177c7.548-1.216,15.141-2.188,22.645-3.623
				c1.468-0.28,2.617-2.223,3.912-3.398c-1.512-0.681-3.076-2.039-4.529-1.929c-7.277,0.555-14.523,1.521-21.789,2.267
				c-1.056,0.108-2.154-0.189-3.233-0.299c-0.058-0.652-0.116-1.304-0.174-1.956c5.08-0.972,10.157-1.957,15.241-2.912
				c2.771-0.521,5.67-0.66,8.283-1.604c1.545-0.559,2.645-2.35,3.943-3.586c-1.582-0.595-3.164-1.671-4.745-1.671
				c-2.457,0-4.938,0.626-7.366,1.181c-3.565,0.813-7.062,1.946-10.644,2.667c-3.117,0.627-6.113,0.39-8.192-3.227
				c1.226-0.344,1.976-0.625,2.752-0.761c7.536-1.319,15.116-2.427,22.587-4.047c1.934-0.419,3.525-2.42,5.275-3.694
				c-2.102-0.749-4.156-1.897-6.315-2.15c-3.153-0.369-6.383-0.095-9.917-0.095c0.523-0.807,0.636-1.207,0.873-1.303
				c0.605-0.246,1.271-0.52,1.903-0.498c8.291,0.295,14.246-2.227,14.479-11.805c0.003-0.152,0.145-0.298,0.197-0.455
				c5.01-15.251,10.018-30.503,15.021-45.757c0.104-0.314,0.139-0.65,0.211-0.976c2.806-12.654,5.47-25.343,8.455-37.955
				C161.612,76.922,163.808,62.34,162.83,47.393z M120.919,227.661c0.204,0.783,0.409,1.565,0.612,2.349
				c-5.701,2.446-11.237,5.573-17.182,7.012c-2.473,0.599-5.818-2.405-8.766-3.771c0.026-0.458,0.051-0.916,0.077-1.375
				C104.08,230.47,112.5,229.066,120.919,227.661z M95.274,110.393c-2.85-9.544-5.753-19.096-7.958-28.801
				c-2.021-8.895-3.198-17.98-4.656-26.453c0.452-2.909,0.522-5.301,1.271-7.458c0.453-1.304,1.96-2.241,2.993-3.343
				c0.928,1.21,2.465,2.321,2.679,3.646c0.952,5.903,1.516,11.868,2.238,17.808c1.264,10.391,2.349,20.81,3.911,31.156
				c0.611,4.044,2.424,7.895,3.437,11.898c0.299,1.184-0.265,2.586-0.433,3.889C97.556,111.966,95.583,111.428,95.274,110.393z
				 M109.147,181.333c-2.489-0.579-5.056-1.08-7.344-2.154c-1.012-0.476-2.284-2.464-2.011-3.296
				c3.7-11.273,0.127-22.457-0.076-33.668c-0.077-4.27,0.467-8.589,1.187-12.807c0.198-1.157,2.056-2.029,3.153-3.033
				c0.596,1.231,1.632,2.432,1.719,3.698c0.737,10.78,1.205,21.578,1.958,32.356c0.392,5.619,1.194,11.211,1.919,17.807
				C109.751,180.01,109.288,181.366,109.147,181.333z M102.763,90.092c0.836-9.691,15.705-40.313,23.783-48.277
				c-0.223,23.051-10.366,41.707-19.95,61.212C102.929,98.898,102.374,94.6,102.763,90.092z M148.731,81.182
				c-6.543,27.852-12.498,55.842-18.752,83.762c-0.798,3.56-1.647,7.165-3.05,10.507c-0.753,1.795-2.464,3.63-4.212,4.48
				c-5.113,2.488-6.708,1.222-6.938-4.506c-0.167-4.147-0.928-8.277-0.992-12.422c-0.123-7.96,0.232-15.928,0.051-23.884
				c-0.101-4.437-0.229-9.057-1.509-13.239c-1.864-6.089-1.563-11.7,0.667-17.528c6.12-16,12.508-31.917,17.916-48.159
				c2.212-6.645,2.257-14.03,3.09-21.101c0.186-1.581,0.042-3.623-0.826-4.815c-1.664-2.289-3.674-5.114-6.086-5.8
				c-1.648-0.469-5.162,1.79-6.227,3.72c-6.17,11.201-11.865,22.665-17.713,34.043c-0.934,1.816-1.833,3.649-2.747,5.474
				c-0.414-0.099-0.827-0.199-1.24-0.298c-1.111-6.301-1.934-12.671-3.427-18.879c-1.157-4.81-2.652-9.676-4.903-14.05
				c-2.889-5.613-7.242-5.62-10.717-0.351c-4.601,6.975-5.7,14.854-4.929,22.999c1.908,20.167,5.819,39.824,14.623,58.299
				c3.989,8.372,2.239,17.383,1.701,26.125c-0.631,10.263-2.165,20.494,1.049,30.554c-8.035,2.499-10.154,1.034-11.934-6.167
				c-2.51-10.154-5.791-20.117-8.507-30.225c-2.622-9.756-4.521-19.724-7.504-29.362c-4.077-13.174-9.518-25.945-13.211-39.212
				c-4.929-17.705,1.287-32.855,13.642-45.54c3.104-3.187,7.727-5.103,11.935-6.963c12.351-5.459,25.298-8.077,38.878-7.464
				c17.201,0.775,32.305,14.036,35.296,31.045C154.5,55.543,151.762,68.285,148.731,81.182z"/>
		</g>
	</g>
</g>
</svg>